# xmcd
#
# Track frame offsets:
#	150
#	18145
#	35867
#	57372
#	75228
#	92080
#	111423
#	131912
#	154707
#	174974
#
# Disc length: 2645 seconds
#
# Revision: 2
# Processed by: cddbd v1.4PL0 Copyright (c) Steve Scherf et al.
# Submitted via: EZCDDA 4.3.2
#
DISCID=780a530a
DTITLE=Cher - Believe
DYEAR=1900
DGENRE=
TTITLE0=Believe
TTITLE1=The Power
TTITLE2=Runaway
TTITLE3=All Or Nothing
TTITLE4=Strong Enough
TTITLE5=Dov'E L'Amore
TTITLE6=Takin' Back My Heart
TTITLE7=Taxi Taxi
TTITLE8=Love Is The Groove
TTITLE9=We All Sleep Alone
EXTD=
EXTT0=
EXTT1=
EXTT2=
EXTT3=
EXTT4=
EXTT5=
EXTT6=
EXTT7=
EXTT8=
EXTT9=
PLAYORDER=
